<?xml version="1.0" encoding="utf-8"?>
<!-- Generator: Adobe Illustrator 23.0.1, SVG Export Plug-In . SVG Version: 6.00 Build 0)  -->
<svg version="1.1" id="node-link-svg" xmlns="http://www.w3.org/2000/svg" xmlns:xlink="http://www.w3.org/1999/xlink" x="0px"
	 y="0px" viewBox="0 0 1800 1200" style="enable-background:new 0 0 1800 1200;" xml:space="preserve">
<style type="text/css">
	.st0{fill:none;stroke:#427D9B;stroke-width:5;}
	.st1{fill:#39A512;stroke:#FFFFFF;}
	.st2{opacity:0.7;fill:#FFFFFF;}
	.st3{font-family:'ArialMT';}
	.st4{font-size:14px;}
	.st5{fill:#E86B45;stroke:#FFFFFF;}
	.st6{fill-rule:evenodd;clip-rule:evenodd;fill:#6973D2;}
	.st7{fill:#0199C3;stroke:#FFFFFF;}
	.st8{font-family:'Avenir-Roman';}
	.st9{fill:none;stroke:#884C99;stroke-width:5;}
	.st10{fill:#C1833E;}
	.st11{fill:#D74862;}
	.st12{fill-rule:evenodd;clip-rule:evenodd;fill:#009C6B;}
	.st13{fill:#797FAE;stroke:#797FAE;stroke-miterlimit:10;}
	.st14{fill:#FFFFFF;stroke:#C1833E;stroke-width:2;}
	.st15{fill:#FFFFFF;stroke:#D74862;stroke-width:2;}
	.st16{fill:#FFFFFF;stroke:#009C6B;stroke-width:2;}
	.st17{fill:#FFFFFF;stroke:#797FAE;stroke-width:2;}
	.st18{fill:#7A7A7A;}
	.st19{fill:#0191C2;stroke:#FFFFFF;}
	.st20{fill-rule:evenodd;clip-rule:evenodd;fill:#E86B45;}
	.st21{fill:none;stroke:#7A7A7A;stroke-miterlimit:10;}
</style>
<g>
	<path class="st0" d="M368.4,191.3c7.4,37.6,49,70,109.2,85.1"/>
</g>
<path class="st1" d="M473.6,229.1h8c24,0,43.4,19.4,43.4,43.4v8c0,24-19.4,43.4-43.4,43.4h-8c-24,0-43.4-19.4-43.4-43.4v-8
	C430.2,248.5,449.6,229.1,473.6,229.1z"/>
<rect x="428.7" y="270.5" class="st2" width="96.3" height="12"/>
<text transform="matrix(1 0 0 1 458.8829 282.4836)" class="st3 st4">Name</text>
<path class="st5" d="M366.7,165.7h8c15.3,0,27.6,12.4,27.6,27.6v8c0,15.3-12.4,27.6-27.6,27.6h-8c-15.3,0-27.6-12.4-27.6-27.6v-8
	C339,178.1,351.4,165.7,366.7,165.7z"/>
<rect x="322.6" y="191.3" class="st2" width="96.2" height="12"/>
<text transform="matrix(1 0 0 1 351.9912 203.3423)" class="st3 st4">Name</text>
<path class="st5" d="M805,179.5L805,179.5c-6.9,0-12.5-5.6-12.5-12.5v0c0-6.9,5.6-12.5,12.5-12.5h0c6.9,0,12.5,5.6,12.5,12.5v0
	C817.5,173.9,811.9,179.5,805,179.5z"/>
<path class="st1" d="M805,211.3L805,211.3c-6.9,0-12.5-5.6-12.5-12.5v0c0-6.9,5.6-12.5,12.5-12.5h0c6.9,0,12.5,5.6,12.5,12.5v0
	C817.5,205.7,811.9,211.3,805,211.3z"/>
<path class="st6" d="M805,243L805,243c-6.9,0-12.5-5.6-12.5-12.5v0c0-6.9,5.6-12.5,12.5-12.5h0c6.9,0,12.5,5.6,12.5,12.5v0
	C817.5,237.4,811.9,243,805,243z"/>
<path class="st7" d="M805,274.7L805,274.7c-6.9,0-12.5-5.6-12.5-12.5v0c0-6.9,5.6-12.5,12.5-12.5h0c6.9,0,12.5,5.6,12.5,12.5v0
	C817.5,269.1,811.9,274.7,805,274.7z"/>
<text transform="matrix(1 0 0 1 827.2963 169.4818)" class="st8 st4">Europe</text>
<text transform="matrix(1 0 0 1 827.2962 203.3033)" class="st8 st4">North America</text>
<text transform="matrix(1 0 0 1 829.496 235.85)" class="st8 st4">South America</text>
<text transform="matrix(1 0 0 1 829.4963 265.8499)" class="st8 st4">Asia</text>
<g>
	<path class="st9" d="M787.9,283.2c2.8,14.3,18.7,26.7,41.6,32.4"/>
</g>
<g>
	<path class="st0" d="M784.3,313.1c2.8,14.3,18.7,26.7,41.6,32.4"/>
</g>
<text transform="matrix(1 0 0 1 851.4916 315.6673)" class="st8 st4">Retweeted</text>
<text transform="matrix(1 0 0 1 851.4918 345.5645)" class="st8 st4">Mentioned</text>
<rect x="634.2" y="256.5" class="st10" width="17" height="34"/>
<image style="overflow:visible;" width="313" height="185" xlink:href="../../../../../../Desktop/Screen Shot 2019-07-14 at 2.17.41 PM.png"  transform="matrix(1.3469 0 0 1.3469 1054.2146 82.3754)">
</image>
<rect x="634.2" y="301.1" class="st11" width="17" height="34"/>
<rect x="634.2" y="211.9" class="st12" width="17" height="34"/>
<rect x="634.2" y="167.3" class="st13" width="17" height="34"/>
<text transform="matrix(1 0 0 1 658.3394 198.7604)" class="st8 st4"># Followers</text>
<text transform="matrix(1 0 0 1 658.3395 242.9986)" class="st8 st4"># Friends</text>
<text transform="matrix(1 0 0 1 658.3394 335.1038)" class="st8 st4"># Days on Twitter</text>
<text transform="matrix(1 0 0 1 658.3394 290.5104)" class="st8 st4"># Status Updates</text>
<rect x="271.7" y="200.9" class="st14" width="27.5" height="49.2"/>
<rect x="271.7" y="208.3" class="st10" width="27.5" height="41.7"/>
<rect x="271.7" y="257.1" class="st15" width="27.5" height="49.2"/>
<rect x="271.7" y="278.7" class="st11" width="27.5" height="27.5"/>
<rect x="271.7" y="144.6" class="st16" width="27.5" height="49.2"/>
<rect x="271.7" y="169.3" class="st12" width="27.5" height="24.6"/>
<rect x="271.7" y="88.4" class="st17" width="27.5" height="49.2"/>
<rect x="271.7" y="98.8" class="st13" width="27.5" height="38.8"/>
<rect x="688.2" y="473.7" class="st10" width="17" height="34"/>
<rect x="663.7" y="473.7" class="st11" width="17" height="34"/>
<rect x="712.7" y="473.7" class="st12" width="17" height="34"/>
<rect x="737.2" y="473.7" class="st13" width="17" height="34"/>
<text transform="matrix(0.7071 -0.7071 0.7071 0.7071 698.1166 565.7534)" class="st8 st4"># Followers</text>
<text transform="matrix(0.7071 -0.7071 0.7071 0.7071 683.1572 555.5346)" class="st8 st4"># Friends</text>
<text transform="matrix(0.7071 -0.7071 0.7071 0.7071 598.8634 591.2247)" class="st8 st4"># Days on Twitter</text>
<text transform="matrix(0.7071 -0.7071 0.7071 0.7071 623.2979 589.6015)" class="st8 st4"># Status Updates</text>
<rect x="761.7" y="476.3" class="st18" width="12.1" height="12.1"/>
<rect x="761.7" y="493.1" class="st18" width="12.1" height="12.1"/>
<text transform="matrix(1 0 0 1 777.7363 474.6011)" class="st8 st4">Type</text>
<text transform="matrix(1 0 0 1 780.3582 515.3688)" class="st8 st4">Continent of Origin</text>
<rect x="982.5" y="495.8" class="st5" width="25" height="25"/>
<rect x="946.3" y="495.8" class="st1" width="25" height="25"/>
<rect x="910.1" y="495.8" class="st6" width="25" height="25"/>
<rect x="1018.6" y="495.8" class="st7" width="25" height="25"/>
<text transform="matrix(0.7071 -0.7071 0.7071 0.7071 893.2377 559.5904)" class="st8 st4">Europe</text>
<text transform="matrix(0.7071 -0.7071 0.7071 0.7071 929.989 555.0793)"><tspan x="0" y="0" class="st8 st4">North </tspan><tspan x="-11.1" y="12" class="st8 st4">America</tspan></text>
<text transform="matrix(0.7071 -0.7071 0.7071 0.7071 971.1671 554.9012)"><tspan x="0" y="0" class="st8 st4">South </tspan><tspan x="-11.4" y="12" class="st8 st4">America</tspan></text>
<text transform="matrix(0.7071 -0.7071 0.7071 0.7071 1019.9702 545.6392)" class="st8 st4">Asia</text>
<rect x="847.3" y="457.3" class="st19" width="25" height="25"/>
<rect x="811.1" y="457.3" class="st20" width="25" height="25"/>
<text transform="matrix(0.7071 -0.7071 0.7071 0.7071 825.3854 454.8706)" class="st8 st4">Person</text>
<text transform="matrix(0.7071 -0.7071 0.7071 0.7071 861.5617 454.8706)" class="st8 st4">Institution</text>
<g>
	<g>
		<path class="st21" d="M767.7,477.2c0.2-2.7-1.6-7.1,8.8-7.3"/>
		<g>
			<polygon class="st18" points="774.7,471.7 776.3,469.9 774.5,468.3 776,468.2 777.7,469.8 776.1,471.6 			"/>
		</g>
	</g>
</g>
<g>
	<g>
		<path class="st21" d="M767.7,504.9c0.2,2.7-1.6,7,8.8,7.2"/>
		<g>
			<polygon class="st18" points="774.5,513.7 776.3,512 774.7,510.3 776.1,510.3 777.7,512.1 776,513.7 			"/>
		</g>
	</g>
</g>
</svg>
